<svg width="290" height="249" viewBox="0 0 290 249" fill="none" xmlns="http://www.w3.org/2000/svg">
<path d="M86.4404 44.1876C74.6808 56.4817 60.4267 63.0742 43.5 63.787C60.4267 64.4997 74.6808 71.0922 86.4404 83.2081C98.0218 95.5023 103.902 110.113 103.902 127.218C103.902 110.113 109.781 95.5023 121.541 83.2081C133.301 70.914 147.733 64.3215 164.66 63.6088C147.733 62.8961 133.301 56.3036 121.541 44.0094C109.781 31.7153 103.902 17.1049 103.902 0C103.902 17.2831 98.2 31.8935 86.4404 44.1876Z" fill="#CF69FF"/>
<path d="M114.759 95.5658C108.278 97.9173 104.339 101.445 101.796 107.245C101.14 108.813 98.3501 113.751 95.6426 118.219C92.9351 122.687 86.5356 133.739 81.2847 142.831C76.1159 151.845 68.4036 165.249 64.1373 172.617C59.8709 179.907 55.1123 188.215 53.4714 191.037C51.9126 193.859 49.041 198.797 47.236 202.168C42.5594 210.319 42.5594 215.023 47.154 217.296C50.4358 218.942 210.67 219.02 215.51 217.374C220.843 215.493 224.946 212.279 227.161 208.046C230.114 202.324 230.114 191.743 227.079 182.807C221.418 165.719 203.942 142.282 184.826 126.057C173.996 116.808 174.324 117.121 163.74 110.067C156.356 105.05 146.182 100.034 138.552 97.6037C130.348 94.9387 119.107 93.9981 114.759 95.5658ZM131.414 111.086C160.212 119.708 199.512 156.156 211.244 185.002C214.526 193.153 214.854 199.973 212.064 202.089C202.301 209.692 164.15 187.51 140.439 160.467C120.338 137.658 110.739 115.24 118.779 110.145C120.42 109.048 126.163 109.518 131.414 111.086ZM108.36 142.439C118.451 161.33 139.537 184.453 159.392 198.327L166.365 203.187L140.767 203.422C126.656 203.5 103.765 203.5 89.8174 203.422L64.4655 203.187L67.5011 198.092C69.2241 195.27 72.3418 189.783 74.557 185.942C76.6902 182.023 81.2847 174.106 84.6485 168.306C95.5605 149.651 100.401 141.342 102.206 137.971C103.191 136.09 104.093 134.679 104.175 134.836C104.257 134.914 106.144 138.363 108.36 142.439Z" fill="black"/>
<path d="M0 205.213C11.5814 204.679 21.3811 200.225 29.399 191.85C37.4169 183.476 41.515 173.498 41.515 161.917C41.515 173.498 45.4348 183.476 53.4528 191.85C61.4707 200.225 71.2704 204.679 82.8518 205.213C71.2704 205.748 61.4707 210.202 53.4528 218.577C45.4348 226.951 41.515 236.929 41.515 248.51C41.515 236.929 37.5951 226.951 29.399 218.577C21.3811 210.202 11.5814 205.748 0 205.213Z" fill="#AC10F5"/>
<path d="M207.247 140.461C194.82 153.423 179.71 160.326 161.917 161.172C179.71 162.017 194.82 168.92 207.247 182.023C219.674 194.985 225.888 210.482 225.888 228.375C225.888 216.54 228.712 205.692 234.361 195.548C240.151 185.404 247.918 177.233 257.661 171.175C267.547 164.976 278.279 161.735 290 161.172C272.066 160.185 256.955 153.423 244.528 140.461C232.101 127.499 225.888 112.143 225.888 94.25C225.888 112.143 219.674 127.499 207.247 140.461Z" fill="#8D33FF"/>
</svg>
