<svg width="24" height="24" viewBox="0 0 24 24" fill="none" xmlns="http://www.w3.org/2000/svg">
<path d="M10.486 0.0593573C8.24771 0.373871 6.42238 1.13434 4.62051 2.49098C4.13251 2.85713 2.86557 4.12927 2.49487 4.62216C1.12939 6.42945 0.359842 8.30714 0.0689146 10.5181C-0.0108556 11.1519 -0.0249327 12.6493 0.0454528 13.2971C0.125223 14.0247 0.355149 15.1185 0.538152 15.6536C0.552229 15.6912 0.669538 15.6302 0.87131 15.4799C1.04024 15.3532 1.38278 15.1467 1.62678 15.0246C1.99279 14.8368 2.06317 14.7852 2.04909 14.7054C1.74409 13.3018 1.65963 12.5367 1.70655 11.5837C1.8004 9.42437 2.51364 7.47626 3.86035 5.69245C4.22635 5.20894 5.21644 4.21846 5.69976 3.85231C7.50632 2.48628 9.44896 1.77745 11.6121 1.69295C12.6116 1.6554 13.2545 1.72581 14.7091 2.04033C14.7889 2.05441 14.8405 1.984 15.0282 1.61785C15.1502 1.37375 15.3567 1.03576 15.4833 0.862073C15.61 0.69308 15.6945 0.542864 15.6757 0.528782C15.5819 0.477145 14.4839 0.214267 13.963 0.125076C13.2169 -0.00636284 11.2039 -0.0439164 10.486 0.0593573Z" fill="#303030"/>
<path d="M19.0965 0.341013C17.9187 0.603891 16.9333 1.39252 16.4218 2.48628C16.084 3.2092 15.9901 4.25601 16.1872 5.03995C16.4687 6.1384 17.2148 7.05848 18.219 7.54668C18.7727 7.80955 19.0777 7.88466 19.7769 7.90813C20.2836 7.92691 20.4526 7.91752 20.7951 7.83302C21.5694 7.64995 22.1559 7.30727 22.719 6.7111C23.3525 6.03513 23.6903 5.23241 23.7325 4.30765C23.7795 3.1247 23.4275 2.19993 22.6204 1.39252C22.1512 0.923099 21.7336 0.664916 21.1095 0.453675C20.7153 0.317542 20.598 0.303459 20.0349 0.289376C19.6033 0.275294 19.3029 0.29407 19.0965 0.341013Z" fill="#303030"/>
<path d="M23.1319 8.53716C22.963 8.66391 22.6298 8.86576 22.3905 8.9925C22.0292 9.17558 21.9588 9.22722 21.9729 9.30702C22.1418 10.0957 22.2451 10.6683 22.2826 11.0861C22.6955 15.311 20.3353 19.4419 16.4453 21.3055C14.9953 22.0003 13.6111 22.3101 11.9875 22.3054C11.0678 22.3007 10.5376 22.2444 9.6742 22.0472C9.43488 21.9956 9.22842 21.958 9.21904 21.9674C9.21434 21.9721 9.1205 22.1505 9.01726 22.357C8.91403 22.5636 8.71226 22.8969 8.57149 23.094C8.42603 23.2959 8.32279 23.4649 8.34156 23.4789C8.42133 23.5259 9.73989 23.8357 10.2044 23.9155C10.6221 23.9812 10.974 24 12.0345 24C13.1841 24 13.4234 23.9859 13.9583 23.892C15.9901 23.54 17.8295 22.7326 19.4249 21.498C19.9739 21.0708 20.9077 20.1507 21.3629 19.5874C22.4187 18.2777 23.2305 16.6817 23.6434 15.0997C23.9484 13.9215 24 13.4755 24 12.0062C24 10.8139 23.9859 10.6026 23.8874 10.0581C23.7748 9.4056 23.5261 8.38695 23.4698 8.34C23.451 8.32123 23.3008 8.41511 23.1319 8.53716Z" fill="#303030"/>
<path d="M3.14242 16.1888C2.21802 16.4282 1.41093 17.0103 0.890079 17.813C0.434919 18.5077 0.256609 19.1931 0.289456 20.0991C0.308225 20.5732 0.33638 20.7375 0.463074 21.1083C0.810309 22.1411 1.50478 22.9203 2.49018 23.3851C3.07203 23.662 3.35827 23.7183 4.15128 23.7183C4.82229 23.7137 4.8739 23.709 5.30091 23.5634C5.87338 23.3663 6.30507 23.1081 6.718 22.7185C7.30924 22.1599 7.70809 21.4745 7.86294 20.7422C7.96148 20.2728 7.9474 19.4231 7.83479 18.9725C7.71279 18.489 7.38432 17.8318 7.08401 17.4656C6.58192 16.8601 5.81707 16.3765 5.04752 16.1841C4.54074 16.0573 3.63981 16.0573 3.14242 16.1888Z" fill="#303030"/>
</svg>
